<?xml version="1.0" standalone="no"?><!DOCTYPE svg PUBLIC "-//W3C//DTD SVG 1.1//EN" "http://www.w3.org/Graphics/SVG/1.1/DTD/svg11.dtd"><svg t="1696835999551" class="icon" viewBox="0 0 1024 1024" version="1.1" xmlns="http://www.w3.org/2000/svg" p-id="1474" xmlns:xlink="http://www.w3.org/1999/xlink" width="16" height="16"><path d="M457.1 614.5c-111.6-93.8-216.4-181.9-323.7-272.1 106.6-89.6 211.5-177.6 321.5-270v125.1c59.9 7.5 116.5 10.8 171.3 22.2 113.9 23.6 204.7 78.9 244.3 196.5 57.2 169.7-10.6 357.8-163 451.4-2.1 1.3-4.7 2-10.1 4.2 20.4-24.9 40.1-46.1 56.7-69.6 32.8-46.2 51.9-97.6 54.1-154.8 2-51.6-20.9-89.1-64.1-115.3-50.5-30.7-107.1-41.6-164.5-46.4-39.8-3.3-80-0.6-122.5-0.6v129.4z" p-id="1475"></path></svg>