<?xml version="1.0" standalone="no"?><!DOCTYPE svg PUBLIC "-//W3C//DTD SVG 1.1//EN" "http://www.w3.org/Graphics/SVG/1.1/DTD/svg11.dtd"><svg t="1696836117595" class="icon" viewBox="0 0 1024 1024" version="1.1" xmlns="http://www.w3.org/2000/svg" p-id="2557" xmlns:xlink="http://www.w3.org/1999/xlink" width="16" height="16"><path d="M880 96H144c-26.51 0-48 21.49-48 48s21.49 48 48 48h736c26.51 0 48-21.49 48-48s-21.49-48-48-48zM144 437.67h320c26.51 0 48-21.49 48-48s-21.49-48-48-48H144c-26.51 0-48 21.49-48 48s21.49 48 48 48zM880 587.33H144c-26.51 0-48 21.49-48 48s21.49 48 48 48h736c26.51 0 48-21.49 48-48s-21.49-48-48-48zM464 833H144c-26.51 0-48 21.49-48 48s21.49 48 48 48h320c26.51 0 48-21.49 48-48s-21.49-48-48-48z" p-id="2558"></path></svg>