<?xml version="1.0" standalone="no"?><!DOCTYPE svg PUBLIC "-//W3C//DTD SVG 1.1//EN" "http://www.w3.org/Graphics/SVG/1.1/DTD/svg11.dtd"><svg t="1696839193796" class="icon" viewBox="0 0 1024 1024" version="1.1" xmlns="http://www.w3.org/2000/svg" p-id="3331" xmlns:xlink="http://www.w3.org/1999/xlink" width="16" height="16"><path d="M960 591.424V368.96c0-0.288 0.16-0.512 0.16-0.768s-0.16-0.512-0.16-0.768V192a32 32 0 0 0-32-32H96a32 32 0 0 0-32 32v175.424c0 0.288-0.16 0.512-0.16 0.768s0.16 0.48 0.16 0.768v222.464c0 0.288-0.16 0.512-0.16 0.768s0.16 0.48 0.16 0.768V864a32 32 0 0 0 32 32h832a32 32 0 0 0 32-32V592.96c0-0.288 0.16-0.512 0.16-0.768s-0.16-0.512-0.16-0.768z m-560-31.232v-160h208v160H400z m208 64V832H400V624.192h208z m-480-224h208v160H128v-160z m544 0h224v160H672v-160zM896 224v112.192H128V224h768zM128 624.192h208V832H128V624.192zM672 832V624.192h224V832H672z" p-id="3332"></path></svg>